<svg xmlns="http://www.w3.org/2000/svg" viewBox="0 0 320 200" role="img" aria-labelledby="title desc">
  <title id="title">PixelHub world icon</title>
  <desc id="desc">A pixel art scene showing a private office, a central hub gate, and a public world.</desc>
  <rect width="320" height="200" rx="20" fill="#f7f1df"/>
  <rect x="12" y="12" width="296" height="176" rx="16" fill="#fff8ea" stroke="#3f3226" stroke-width="4"/>

  <rect x="24" y="140" width="272" height="24" fill="#4f7b39"/>
  <rect x="24" y="164" width="272" height="8" fill="#2f5127"/>

  <rect x="36" y="44" width="72" height="72" fill="#d28a44" stroke="#3f3226" stroke-width="4"/>
  <rect x="52" y="60" width="16" height="16" fill="#8fd3ff"/>
  <rect x="76" y="60" width="16" height="16" fill="#8fd3ff"/>
  <rect x="60" y="84" width="24" height="32" fill="#5f3a1f"/>
  <rect x="44" y="36" width="56" height="8" fill="#9b5b2a"/>
  <rect x="52" y="28" width="40" height="8" fill="#9b5b2a"/>
  <rect x="60" y="20" width="24" height="8" fill="#9b5b2a"/>

  <rect x="132" y="68" width="56" height="64" fill="#3c5aa8" stroke="#3f3226" stroke-width="4"/>
  <rect x="148" y="84" width="24" height="32" fill="#8fd3ff"/>
  <rect x="140" y="60" width="40" height="8" fill="#5d7fe0"/>
  <rect x="148" y="52" width="24" height="8" fill="#5d7fe0"/>
  <rect x="148" y="116" width="24" height="16" fill="#f7d55c"/>

  <rect x="212" y="60" width="20" height="56" fill="#5fa3d8" stroke="#3f3226" stroke-width="4"/>
  <rect x="236" y="44" width="24" height="72" fill="#e26d5a" stroke="#3f3226" stroke-width="4"/>
  <rect x="264" y="68" width="20" height="48" fill="#f1c84c" stroke="#3f3226" stroke-width="4"/>
  <rect x="220" y="76" width="8" height="8" fill="#dff5ff"/>
  <rect x="220" y="92" width="8" height="8" fill="#dff5ff"/>
  <rect x="244" y="60" width="8" height="8" fill="#ffe3c5"/>
  <rect x="244" y="76" width="8" height="8" fill="#ffe3c5"/>
  <rect x="272" y="84" width="8" height="8" fill="#fff3bf"/>

  <rect x="104" y="128" width="8" height="8" fill="#3f3226"/>
  <rect x="112" y="120" width="8" height="8" fill="#3f3226"/>
  <rect x="120" y="112" width="8" height="8" fill="#3f3226"/>
  <rect x="192" y="112" width="8" height="8" fill="#3f3226"/>
  <rect x="200" y="120" width="8" height="8" fill="#3f3226"/>
  <rect x="208" y="128" width="8" height="8" fill="#3f3226"/>

  <g transform="translate(64 120)">
    <rect x="8" y="0" width="24" height="8" fill="#2d2d2d"/>
    <rect x="0" y="8" width="40" height="16" fill="#6a4530"/>
    <rect x="8" y="24" width="24" height="16" fill="#ffd2b3"/>
    <rect x="8" y="40" width="8" height="8" fill="#ffd2b3"/>
    <rect x="24" y="40" width="8" height="8" fill="#ffd2b3"/>
    <rect x="8" y="48" width="24" height="16" fill="#5d7fe0"/>
    <rect x="8" y="64" width="8" height="16" fill="#2d2d2d"/>
    <rect x="24" y="64" width="8" height="16" fill="#2d2d2d"/>
  </g>

  <g transform="translate(216 120)">
    <rect x="8" y="0" width="24" height="8" fill="#6c2e1f"/>
    <rect x="0" y="8" width="40" height="16" fill="#d46f4d"/>
    <rect x="8" y="24" width="24" height="16" fill="#ffd2b3"/>
    <rect x="8" y="40" width="8" height="8" fill="#ffd2b3"/>
    <rect x="24" y="40" width="8" height="8" fill="#ffd2b3"/>
    <rect x="8" y="48" width="24" height="16" fill="#4f7b39"/>
    <rect x="8" y="64" width="8" height="16" fill="#2d2d2d"/>
    <rect x="24" y="64" width="8" height="16" fill="#2d2d2d"/>
  </g>

  <rect x="128" y="28" width="64" height="20" rx="8" fill="#fff0bd" stroke="#3f3226" stroke-width="3"/>
  <text x="160" y="42" font-family="monospace" font-size="12" text-anchor="middle" fill="#3f3226">PIXEL HUB</text>

  <rect x="44" y="176" width="72" height="4" fill="#3f3226"/>
  <rect x="124" y="176" width="72" height="4" fill="#3f3226"/>
  <rect x="204" y="176" width="72" height="4" fill="#3f3226"/>
  <text x="80" y="192" font-family="monospace" font-size="10" text-anchor="middle" fill="#3f3226">OFFICE</text>
  <text x="160" y="192" font-family="monospace" font-size="10" text-anchor="middle" fill="#3f3226">HUB</text>
  <text x="240" y="192" font-family="monospace" font-size="10" text-anchor="middle" fill="#3f3226">WORLD</text>
</svg>
